<?xml version="1.0" encoding="utf-8"?>
<!-- Generator: Adobe Illustrator 16.0.0, SVG Export Plug-In . SVG Version: 6.00 Build 0)  -->
<!DOCTYPE svg PUBLIC "-//W3C//DTD SVG 1.1//EN" "http://www.w3.org/Graphics/SVG/1.1/DTD/svg11.dtd">
<svg version="1.1" id="Layer_1" xmlns="http://www.w3.org/2000/svg" xmlns:xlink="http://www.w3.org/1999/xlink" x="0px" y="0px"
	 width="424px" height="424px" viewBox="0 0 424 424" enable-background="new 0 0 424 424" xml:space="preserve">
<rect x="343" y="232" display="none" fill="#FFFFFF" width="42" height="34"/>
<path id="path1575" fill="#99CC66" stroke="#99CC66" stroke-width="9" stroke-miterlimit="10" d="M297.102,44.616
	c-0.662-0.131-1.343-0.235-2.019-0.32c-27.52-0.684-47.694,26.268-54.702,52.302c-7.539,23.376-3.301,56.337,20.435,66.91
	c3.455,1.481,7.241,1.936,10.935,1.65c31.745-4.4,52.015-39.222,53.453-71.288C327.662,73.482,317.484,48.609,297.102,44.616z
	 M113.539,52.279c-16.125,5.309-24.127,26.678-22.345,43.962c3.221,34.346,27.922,70.794,62.606,71.53
	c3.178-0.206,6.293-1.066,9.184-2.474c20.574-10.333,22.899-38.907,16.483-59.488c-7.918-27.307-29.717-55.082-58.526-54.76
	C118.306,51.089,115.838,51.52,113.539,52.279z M408.286,160.788c-24.392-17.21-57.883-5.207-76.483,16.167
	c-14.871,14.248-22.273,43.315-5.321,58.986c25.176,19.665,62.223,4.864,80.158-19.031
	C419.609,201.995,424.511,175.198,408.286,160.788z M21.232,161.607c-10.63,6.841-17.134,20.431-13.978,34.16
	c8.479,36.723,49.393,63.415,83.566,49.87c14.053-6.021,19.215-23.761,15.136-38.357c-8.777-31.178-40.445-53.286-70.676-50.211
	C30.193,157.287,25.391,158.933,21.232,161.607z M214.037,171.116c-26.443,0.524-53.086,15.317-69.883,36.935
	c-18.112,25.166-32.808,54.345-38.245,85.785c-6.849,22.694,9.883,48.382,32.495,48.127c27.217,0.333,50.287-20.012,77.311-21.964
	c22.896-4.142,43.643,8.229,64.408,16.197c17.69,7.699,41.924,4.19,50.58-16.125c6.738-20.679-3.986-42.415-12.884-60.52
	c-18.007-29.321-37.297-60.141-66.35-78.126C239.815,174.004,226.951,170.854,214.037,171.116z"/>
<g>
	<path fill="#FFFFFF" d="M276.312,248.117c0,15.294-4.354,28.52-13.062,39.676c-9.471,12.137-21.607,18.205-36.41,18.205
		c-2.83,0-7.09-0.108-12.776-0.326c-5.688-0.217-9.947-0.327-12.776-0.327c-2.559,0-6.408,0.11-11.552,0.327
		c-5.144,0.218-8.994,0.326-11.552,0.326c-1.361,0-2.041-0.68-2.041-2.041c0-5.932,0.231-14.885,0.694-26.858
		c0.462-11.973,0.694-20.953,0.694-26.94c0-6.313-0.219-15.81-0.653-28.491c-0.437-12.681-0.653-22.178-0.653-28.491
		c0-1.143,0.707-1.714,2.123-1.714c2.012,0,5.02,0.028,9.021,0.082c4,0.055,7.007,0.082,9.021,0.082c1.85,0,4.68-0.027,8.49-0.082
		c3.809-0.054,6.694-0.082,8.654-0.082c18.885,0,32.953,3.565,42.206,10.694c6.64,5.117,11.782,12.001,15.429,20.654
		C274.598,230.865,276.312,239.301,276.312,248.117z M256.311,248.117c0-11.756-3.348-21.334-10.041-28.736
		c-6.967-7.674-16.273-11.511-27.92-11.511c-9.633,0-13.525-0.054-11.674-0.163c-6.368,0.326-9.553,1.497-9.553,3.511
		c0,4.191-0.096,10.463-0.285,18.817c-0.191,8.354-0.285,14.627-0.285,18.817c0,4.137,0.094,10.341,0.285,18.613
		c0.189,8.272,0.285,14.478,0.285,18.612c0,2.069,3.266,3.266,9.797,3.593c-0.871-0.054,3.103-0.082,11.92-0.082
		c6.258,0,11.237-0.653,14.939-1.959c4.571-1.633,8.68-4.653,12.326-9.062C252.908,270.296,256.311,260.146,256.311,248.117z"/>
</g>
<g>
</g>
<g>
</g>
<g>
</g>
<g>
</g>
<g>
</g>
<g>
</g>
<g>
</g>
<g>
</g>
<g>
</g>
<g>
</g>
<g>
</g>
<g>
</g>
<g>
</g>
<g>
</g>
<g>
</g>
</svg>
